<?xml version="1.0" encoding="UTF-8" standalone="no"?>
<!-- Created with Inkscape (http://www.inkscape.org/) -->

<svg
   xmlns:dc="http://purl.org/dc/elements/1.1/"
   xmlns:cc="http://creativecommons.org/ns#"
   xmlns:rdf="http://www.w3.org/1999/02/22-rdf-syntax-ns#"
   xmlns:svg="http://www.w3.org/2000/svg"
   xmlns="http://www.w3.org/2000/svg"
   xmlns:sodipodi="http://sodipodi.sourceforge.net/DTD/sodipodi-0.dtd"
   xmlns:inkscape="http://www.inkscape.org/namespaces/inkscape"
   id="svg2"
   version="1.1"
   inkscape:version="0.91 r"
   xml:space="preserve"
   width="527.5"
   height="140.485"
   viewBox="0 0 527.5 140.485"
   sodipodi:docname="iconosolma.ai.svg"><metadata
     id="metadata8"><rdf:RDF><cc:Work
         rdf:about=""><dc:format>image/svg+xml</dc:format><dc:type
           rdf:resource="http://purl.org/dc/dcmitype/StillImage" /><dc:title></dc:title></cc:Work></rdf:RDF></metadata><defs
     id="defs6"><clipPath
       clipPathUnits="userSpaceOnUse"
       id="clipPath16"><path
         d="m 0,112.388 422,0 L 422,0 0,0 0,112.388 Z"
         id="path18"
         inkscape:connector-curvature="0" /></clipPath></defs><sodipodi:namedview
     pagecolor="#ffffff"
     bordercolor="#666666"
     borderopacity="1"
     objecttolerance="10"
     gridtolerance="10"
     guidetolerance="10"
     inkscape:pageopacity="0"
     inkscape:pageshadow="2"
     inkscape:window-width="1920"
     inkscape:window-height="1024"
     id="namedview4"
     showgrid="false"
     inkscape:zoom="2.3886256"
     inkscape:cx="179.9951"
     inkscape:cy="48.446253"
     inkscape:window-x="0"
     inkscape:window-y="0"
     inkscape:window-maximized="1"
     inkscape:current-layer="g10" /><g
     id="g10"
     inkscape:groupmode="layer"
     inkscape:label="iconosolma"
     transform="matrix(1.25,0,0,-1.25,0,140.485)"><g
       id="g3467"
       style="fill:#552200"><g
         transform="translate(160.44686,79.007613)"
         id="g20"
         style="fill:#552200"><path
           inkscape:connector-curvature="0"
           id="path22"
           style="fill:#552200;fill-opacity:1;fill-rule:nonzero;stroke:none"
           d="m 0,0 c 1.012,-0.132 2.031,-0.228 3.036,-0.398 7.34,-1.252 13.423,-4.562 17.536,-10.95 2.803,-4.351 3.641,-9.184 3.191,-14.289 -0.395,-4.486 -2.012,-8.568 -4.085,-12.507 -1.013,-1.924 -2.013,-3.858 -2.98,-5.807 -1.854,-3.742 -1.771,-7.524 0.04,-11.229 1.085,-2.218 2.379,-4.336 3.585,-6.496 0.291,-0.521 0.61,-1.027 0.903,-1.548 0.565,-1.002 0.352,-1.737 -0.645,-2.292 -0.07,-0.039 -0.127,-0.098 -0.189,-0.148 l -0.769,0 c -0.375,0.39 -0.848,0.725 -1.11,1.18 -1.481,2.571 -2.99,5.13 -4.334,7.771 -1.229,2.417 -1.994,5.001 -1.855,7.767 0.112,2.253 0.815,4.37 1.751,6.384 1.114,2.398 2.377,4.727 3.584,7.082 1.501,2.924 2.629,5.96 3.035,9.253 1.123,9.095 -2.945,16.811 -11.161,20.775 -12.456,6.008 -26.885,0.392 -32.687,-11.039 -1.406,-2.771 -1.99,-5.715 -1.478,-8.821 0.194,-1.177 -0.115,-2.273 -0.63,-3.28 -1.437,-2.81 -2.942,-5.588 -4.429,-8.373 -0.381,-0.716 -0.795,-1.415 -1.191,-2.122 -0.338,-0.603 -0.319,-0.741 0.372,-0.948 0.978,-0.294 1.982,-0.506 2.976,-0.747 0.248,-0.061 0.503,-0.095 0.754,-0.143 1.195,-0.228 1.608,-0.825 1.325,-2.012 -0.198,-0.826 -0.466,-1.634 -0.732,-2.551 0.703,-0.104 1.367,-0.196 2.028,-0.298 0.295,-0.046 0.594,-0.088 0.877,-0.179 0.726,-0.23 1.006,-0.672 0.962,-1.459 -0.039,-0.694 -0.41,-1.206 -1.112,-1.28 -0.691,-0.073 -1.399,0.003 -2.098,0.028 -0.208,0.009 -0.414,0.067 -0.628,0.104 0,-0.085 -0.016,-0.144 0.002,-0.157 1.383,-1.044 1.654,-2.407 1.161,-3.998 -0.101,-0.326 -0.171,-0.662 -0.241,-0.996 -0.313,-1.504 0.075,-2.471 1.487,-3.085 1.165,-0.505 2.404,-0.904 3.649,-1.144 2.618,-0.504 5.256,-0.918 7.897,-1.286 2.703,-0.377 4.071,-2.207 5.075,-4.464 0.263,-0.592 -10e-4,-1.24 -0.553,-1.629 -0.17,-0.12 -0.351,-0.224 -0.527,-0.333 l -0.77,0 c -0.312,0.305 -0.733,0.555 -0.918,0.924 -0.881,1.758 -2.344,2.529 -4.222,2.824 -2.885,0.45 -5.76,0.967 -8.622,1.543 -0.884,0.178 -1.752,0.56 -2.555,0.986 -2.524,1.339 -3.594,3.994 -2.789,6.736 0.344,1.169 0.249,1.419 -0.774,2.047 -1.103,0.677 -1.082,1.823 0.005,2.729 -0.3,0.359 -0.803,0.694 -0.848,1.083 -0.064,0.55 0.175,1.149 0.349,1.709 0.15,0.481 0.389,0.937 0.629,1.495 -0.586,0.137 -1.104,0.222 -1.599,0.378 -0.749,0.236 -1.527,0.439 -2.212,0.807 -1.486,0.798 -2.022,2.826 -1.189,4.266 1.741,3.01 3.375,6.083 5.053,9.13 0.144,0.263 0.284,0.527 0.43,0.787 0.5,0.897 0.719,1.8 0.578,2.873 -0.57,4.35 0.495,8.383 2.818,12.034 4.597,7.225 11.231,11.468 19.62,13.018 0.709,0.132 1.43,0.197 2.146,0.295 L 0,0 Z" /></g><g
         transform="translate(155.68466,50.816213)"
         id="g24"
         style="fill:#552200"><path
           inkscape:connector-curvature="0"
           id="path26"
           style="fill:#552200;fill-opacity:1;fill-rule:nonzero;stroke:none"
           d="m 0,0 -8.841,0 c 0.177,0.244 0.287,0.414 0.414,0.57 4.475,5.477 8.952,10.951 13.429,16.424 0.081,0.1 0.147,0.225 0.25,0.288 0.114,0.07 0.292,0.144 0.388,0.099 C 5.727,17.34 5.791,17.139 5.779,17.017 5.758,16.809 5.675,16.604 5.608,16.402 4.446,12.855 3.282,9.31 2.12,5.763 2.043,5.525 1.977,5.285 1.887,4.984 l 8.834,0 C 10.591,4.778 10.522,4.641 10.428,4.521 5.768,-1.354 1.108,-7.228 -3.564,-13.093 c -0.131,-0.165 -0.394,-0.222 -0.595,-0.331 -0.01,0.232 -0.087,0.485 -0.02,0.691 1.313,4.012 2.644,8.019 3.97,12.029 C -0.143,-0.506 -0.089,-0.303 0,0" /></g><g
         transform="translate(161.93076,60.241013)"
         id="g28"
         style="fill:#552200"><path
           inkscape:connector-curvature="0"
           id="path30"
           style="fill:#552200;fill-opacity:1;fill-rule:nonzero;stroke:none"
           d="m 0,0 c 0.321,0.998 0.589,1.872 0.896,2.73 0.044,0.123 0.285,0.248 0.435,0.249 2.564,0.013 5.128,0.022 7.692,0 0.835,-0.007 1.408,-0.641 1.416,-1.507 0.014,-1.387 0.004,-2.774 0.004,-4.272 0.671,0 1.302,0.005 1.932,-0.001 1.119,-0.009 1.716,-0.572 1.729,-1.684 0.017,-1.624 0.018,-3.249 -0.003,-4.872 -0.015,-1.033 -0.628,-1.603 -1.666,-1.616 -0.598,-0.006 -1.196,-0.009 -1.793,-0.016 -0.038,-10e-4 -0.077,-0.032 -0.198,-0.084 l 0,-2.955 c -0.001,-0.833 0.017,-1.667 -0.009,-2.5 -0.026,-0.77 -0.569,-1.38 -1.325,-1.385 -3.845,-0.024 -7.689,-0.012 -11.689,-0.012 0.357,0.465 0.707,0.807 0.923,1.219 0.795,1.517 2.021,1.93 3.677,1.776 1.61,-0.148 3.245,-0.016 4.869,-0.041 0.451,-0.006 0.585,0.141 0.584,0.585 -0.013,4.595 -0.015,9.19 0.002,13.783 0.001,0.489 -0.16,0.62 -0.628,0.615 C 4.904,-0.011 2.959,0.001 1.015,0 L 0,0" /></g><g
         transform="translate(153.28136,63.141413)"
         id="g32"
         style="fill:#552200"><path
           inkscape:connector-curvature="0"
           id="path34"
           style="fill:#552200;fill-opacity:1;fill-rule:nonzero;stroke:none"
           d="m 0,0 c -0.754,-0.921 -1.455,-1.806 -2.198,-2.655 -0.138,-0.158 -0.446,-0.231 -0.676,-0.233 -1.966,-0.019 -3.932,-0.021 -5.898,-0.006 -0.404,0.003 -0.565,-0.102 -0.564,-0.537 0.012,-4.637 0.005,-9.274 0.007,-13.911 0,-0.145 0.031,-0.29 0.054,-0.493 l 6.951,0 c -0.322,-0.983 -0.604,-1.887 -0.927,-2.776 -0.042,-0.117 -0.299,-0.219 -0.457,-0.219 -2.393,-0.012 -4.787,-0.02 -7.18,0.003 -0.847,0.008 -1.429,0.63 -1.43,1.491 -0.008,5.962 -0.009,11.924 -0.001,17.885 0.001,0.899 0.593,1.527 1.465,1.531 3.547,0.014 7.094,0.004 10.641,0.001 C -0.175,0.081 -0.138,0.054 0,0" /></g></g><g
       style="fill:#ff0000"
       id="g36"
       transform="translate(16.559913,75.446975)"><path
         d="m 0,0 0,-59.491 c 0,-0.676 0.573,-1.25 1.25,-1.25 l 62.854,0 c 1.609,0 1.611,2.5 0,2.5 l -62.854,0 c 0.417,-0.417 0.833,-0.834 1.25,-1.25 L 2.5,0 C 2.5,1.608 0,1.61 0,0"
         style="fill:#ff0000;fill-opacity:1;fill-rule:nonzero;stroke:none"
         id="path38"
         inkscape:connector-curvature="0" /></g><g
       style="fill:#ff0000"
       id="g40"
       transform="translate(26.184413,44.308275)"><path
         d="m 0,0 c 5.485,5.542 10.971,11.085 16.456,16.627 l -2.121,0 c 4.19,-4.569 8.381,-9.139 12.571,-13.709 0.709,-0.773 1.817,-0.434 2.356,0.304 4.342,5.949 8.685,11.898 13.028,17.847 1.139,1.562 -1.463,3.06 -2.591,1.515 -4.342,-5.95 -8.685,-11.899 -13.028,-17.848 0.786,0.101 1.571,0.203 2.356,0.304 -4.19,4.569 -8.38,9.139 -12.571,13.709 -0.545,0.595 -1.57,0.557 -2.121,0 C 8.85,13.206 3.364,7.664 -2.121,2.121 -3.481,0.748 -1.361,-1.375 0,0"
         style="fill:#ff0000;fill-opacity:1;fill-rule:nonzero;stroke:none"
         id="path42"
         inkscape:connector-curvature="0" /></g><g
       style="fill:#ff0000"
       id="g44"
       transform="translate(64.207413,69.533875)"><path
         d="M 0,0 5.894,-5.692 6.736,0.739 0,0 Z"
         style="fill:#ff0000;fill-opacity:1;fill-rule:nonzero;stroke:none"
         id="path46"
         inkscape:connector-curvature="0" /></g><g
       style="fill:#ff0000"
       id="g48"
       transform="translate(24.783513,33.737975)"><path
         d="m 0,0 8.223,0 c 0.632,0 1.145,-0.513 1.145,-1.146 l 0,-10.318 c 0,-0.633 -0.513,-1.146 -1.145,-1.146 l -8.223,0 c -0.633,0 -1.145,0.513 -1.145,1.146 l 0,10.318 C -1.145,-0.513 -0.633,0 0,0"
         style="fill:#ff0000;fill-opacity:1;fill-rule:nonzero;stroke:none"
         id="path50"
         inkscape:connector-curvature="0" /></g><g
       style="fill:#ff0000"
       id="g52"
       transform="translate(37.911013,47.059275)"><path
         d="m 0,0 8.138,0 c 0.656,0 1.188,-0.532 1.188,-1.188 l 0,-23.555 c 0,-0.656 -0.532,-1.189 -1.188,-1.189 l -8.138,0 c -0.656,0 -1.188,0.533 -1.188,1.189 l 0,23.555 C -1.188,-0.532 -0.656,0 0,0"
         style="fill:#ff0000;fill-opacity:1;fill-rule:nonzero;stroke:none"
         id="path54"
         inkscape:connector-curvature="0" /></g><g
       style="fill:#ff0000"
       id="g56"
       transform="translate(50.955413,40.785775)"><path
         d="m 0,0 8.219,0 c 0.634,0 1.148,-0.514 1.148,-1.146 l 0,-17.365 c 0,-0.633 -0.514,-1.146 -1.148,-1.146 l -8.219,0 c -0.634,0 -1.147,0.513 -1.147,1.146 l 0,17.365 C -1.147,-0.514 -0.634,0 0,0"
         style="fill:#ff0000;fill-opacity:1;fill-rule:nonzero;stroke:none"
         id="path58"
         inkscape:connector-curvature="0" /></g><g
       style="fill:#ff0000"
       id="g60"
       transform="translate(64.694713,53.330675)"><path
         d="m 0,0 8.282,0 c 0.616,0 1.116,-0.5 1.116,-1.115 l 0,-29.972 c 0,-0.615 -0.5,-1.115 -1.116,-1.115 l -8.282,0 c -0.616,0 -1.116,0.5 -1.116,1.115 l 0,29.972 C -1.116,-0.5 -0.616,0 0,0"
         style="fill:#ff0000;fill-opacity:1;fill-rule:nonzero;stroke:none"
         id="path62"
         inkscape:connector-curvature="0" /></g><g
       id="g3459"
       style="fill:#800080"><g
         transform="translate(298.53036,63.924613)"
         id="g64"
         style="fill:#800080"><path
           inkscape:connector-curvature="0"
           id="path66"
           style="fill:#800080;fill-opacity:1;fill-rule:nonzero;stroke:none"
           d="M 0,0 C 1.39,-1.381 2.713,-2.695 4.092,-4.064 3.803,-4.365 3.511,-4.677 3.21,-4.979 2.272,-5.92 1.347,-6.874 0.385,-7.789 0.022,-8.134 0.02,-8.382 0.313,-8.772 c 2.303,-3.059 3.805,-6.479 4.538,-10.238 0.019,-0.106 0.052,-0.212 0.066,-0.319 0.046,-0.409 0.24,-0.899 0.083,-1.206 -0.14,-0.275 -0.667,-0.359 -1.03,-0.509 -0.828,-0.346 -1.427,-0.927 -1.735,-1.764 -0.149,-0.409 -0.388,-0.585 -0.809,-0.619 -0.411,-0.033 -0.667,0.073 -0.899,0.456 -0.758,1.266 -2.06,1.733 -3.492,1.321 -0.143,-0.041 -0.29,-0.079 -0.507,-0.136 -0.06,0.193 -0.137,0.366 -0.168,0.545 -1.154,6.911 -6.258,12.202 -13.053,13.425 -8.555,1.541 -16.631,-3.897 -18.556,-12.166 -2.138,-9.183 3.895,-18.16 13.208,-19.63 3.34,-0.529 6.549,-0.007 9.598,1.466 0.097,0.047 0.194,0.136 0.292,0.138 0.311,0.007 0.724,0.099 0.913,-0.06 0.298,-0.254 0.078,-1.002 -0.273,-1.239 -1.631,-1.099 -1.994,-2.618 -1.054,-4.361 0.566,-1.052 1.119,-2.108 1.714,-3.234 -0.293,-0.124 -0.517,-0.243 -0.755,-0.318 -7.419,-2.357 -14.516,-1.638 -21.126,2.499 -6.497,4.067 -10.33,9.993 -11.427,17.583 -0.971,6.715 0.679,12.827 4.659,18.307 0.346,0.476 0.332,0.739 -0.085,1.134 -1.153,1.09 -2.268,2.219 -3.317,3.255 1.388,1.387 2.717,2.716 4.119,4.118 0.367,-0.36 0.859,-0.837 1.346,-1.322 0.695,-0.691 1.396,-1.376 2.069,-2.087 0.303,-0.321 0.529,-0.315 0.884,-0.055 3.563,2.611 7.518,4.262 11.925,4.767 0.567,0.065 0.827,0.31 0.76,0.884 -0.016,0.151 -0.016,0.307 0,0.456 0.062,0.553 -0.141,0.785 -0.731,0.767 -1.13,-0.035 -2.264,-0.012 -3.397,0.001 -1.518,0.017 -2.438,0.944 -2.442,2.452 -0.003,0.87 -0.019,1.741 0.004,2.611 0.036,1.404 0.935,2.322 2.353,2.346 1.915,0.032 3.831,0.018 5.747,0.018 2.266,-10e-4 4.53,-0.005 6.793,-0.012 1.577,-0.005 2.477,-0.89 2.493,-2.457 0.009,-0.891 0.018,-1.781 -0.005,-2.67 -0.035,-1.374 -0.948,-2.267 -2.33,-2.286 -0.979,-0.015 -1.959,-0.02 -2.939,10e-4 -0.476,0.01 -0.645,-0.172 -0.654,-0.651 -0.028,-1.38 -0.043,-1.377 1.288,-1.585 3.968,-0.622 7.57,-2.128 10.786,-4.528 0.552,-0.411 0.841,-0.341 1.279,0.118 C -2.397,-2.347 -1.191,-1.186 0,0" /></g><g
         transform="translate(293.40146,26.714613)"
         id="g68"
         style="fill:#800080"><path
           inkscape:connector-curvature="0"
           id="path70"
           style="fill:#800080;fill-opacity:1;fill-rule:nonzero;stroke:none"
           d="m 0,0 c -0.078,-4.285 3.405,-7.799 7.799,-7.869 4.169,-0.066 7.8,3.504 7.855,7.727 C 15.71,4.133 12.268,7.755 7.977,7.813 3.209,7.878 -0.102,3.994 0,0 m 17.153,8.066 c 0.406,0.182 0.78,0.341 1.144,0.518 0.814,0.394 1.284,0.254 1.715,-0.552 0.489,-0.922 0.974,-1.845 1.436,-2.782 0.371,-0.753 0.186,-1.275 -0.549,-1.687 -1.297,-0.728 -1.383,-0.9 -1.19,-2.389 0.015,-0.108 0.044,-0.217 0.035,-0.324 -0.11,-1.258 0.394,-2.023 1.686,-2.275 0.607,-0.119 0.96,-0.64 0.804,-1.232 -0.323,-1.232 -0.713,-2.452 -1.172,-3.639 -0.191,-0.495 -0.711,-0.677 -1.272,-0.523 -0.229,0.064 -0.465,0.117 -0.687,0.2 -0.662,0.244 -1.188,0.056 -1.624,-0.471 -0.36,-0.436 -0.722,-0.872 -1.095,-1.296 -0.457,-0.519 -0.533,-1.071 -0.199,-1.681 0.114,-0.209 0.221,-0.424 0.314,-0.644 0.246,-0.579 0.105,-1.109 -0.434,-1.402 -1.032,-0.56 -2.075,-1.102 -3.129,-1.615 -0.599,-0.291 -1.105,-0.107 -1.456,0.457 -0.149,0.24 -0.273,0.495 -0.409,0.743 -0.369,0.668 -1.001,0.777 -1.638,0.636 -0.904,-0.201 -2.042,0.259 -2.643,-0.852 -0.143,-0.264 -0.199,-0.573 -0.304,-0.858 -0.255,-0.694 -0.693,-1.033 -1.4,-0.857 -1.133,0.283 -2.254,0.639 -3.346,1.052 -0.654,0.247 -0.825,0.814 -0.649,1.52 0.095,0.377 0.236,0.759 0.235,1.139 0,0.794 -2.114,2.61 -2.893,2.483 -0.374,-0.061 -0.726,-0.278 -1.079,-0.441 -0.777,-0.359 -1.287,-0.213 -1.688,0.528 -0.497,0.918 -0.987,1.839 -1.46,2.77 -0.407,0.8 -0.27,1.354 0.553,1.704 1.018,0.433 1.353,1.131 1.179,2.174 -0.078,0.47 -0.083,0.953 -0.136,1.428 -0.061,0.554 -0.401,0.9 -0.894,1.106 -0.219,0.092 -0.457,0.14 -0.681,0.219 -0.718,0.256 -1.059,0.718 -0.871,1.457 0.289,1.132 0.651,2.248 1.057,3.344 0.223,0.599 0.816,0.874 1.395,0.613 1.236,-0.559 2.081,-0.157 2.749,0.909 0.126,0.201 0.29,0.382 0.457,0.553 0.613,0.624 0.694,1.267 0.257,2.061 -0.611,1.112 -0.443,1.532 0.676,2.122 0.847,0.447 1.692,0.896 2.544,1.33 0.69,0.351 1.2,0.191 1.595,-0.478 0.122,-0.206 0.234,-0.417 0.348,-0.628 0.262,-0.491 0.668,-0.731 1.225,-0.693 0.716,0.049 1.454,0.017 2.138,0.19 0.403,0.102 0.755,0.504 1.064,0.833 0.162,0.173 0.175,0.483 0.264,0.728 0.253,0.694 0.688,1.028 1.4,0.852 1.113,-0.276 2.213,-0.623 3.284,-1.032 0.733,-0.28 0.967,-0.861 0.674,-1.601 -0.406,-1.027 -0.228,-1.805 0.715,-2.418 0.381,-0.248 0.691,-0.602 1.064,-0.863 0.256,-0.179 0.564,-0.28 0.891,-0.436" /></g><g
         transform="translate(269.61436,47.646313)"
         id="g72"
         style="fill:#800080"><path
           inkscape:connector-curvature="0"
           id="path74"
           style="fill:#800080;fill-opacity:1;fill-rule:nonzero;stroke:none"
           d="m 0,0 c 0.684,0.683 1.324,1.322 2.001,1.997 0.12,-0.113 0.278,-0.256 0.428,-0.406 1.954,-1.952 3.908,-3.904 5.859,-5.859 0.296,-0.297 0.583,-0.491 1.064,-0.49 1.247,0.003 2.315,-0.878 2.532,-1.968 0.247,-1.247 -0.315,-2.444 -1.393,-2.961 -1.103,-0.528 -2.47,-0.268 -3.167,0.727 -0.32,0.455 -0.397,1.077 -0.599,1.617 -0.129,0.344 -0.2,0.758 -0.439,1.003 C 4.31,-4.319 2.301,-2.33 0.302,-0.33 0.196,-0.224 0.1,-0.109 0,0" /></g></g></g></svg>